<?xml version="1.0" encoding="utf-8"?>
<!DOCTYPE svg PUBLIC "-//W3C//DTD SVG 1.1//EN" "http://www.w3.org/Graphics/SVG/1.1/DTD/svg11.dtd">
<svg version="1.1" x="0px" y="0px" width="85px" height="26px" viewBox="0 0 564.356 124.686" data-reactid=".0.$logo.0" xmlns="http://www.w3.org/2000/svg" xmlns:xlink= "http://www.w3.org/1999/xlink" fill="#F25433">
    <path d="M65.23,74.811c0-8.551-1.792-15.198-5.376-19.95c-3.585-4.988-8.485-7.481-14.696-7.481c-6.692,0-11.827,2.377-15.411,7.123c-3.583,4.988-5.376,11.757-5.376,20.308c0,9.977,1.67,17.22,5.015,21.73c3.588,4.986,8.604,7.479,15.057,7.479c6.685,0,11.826-2.492,15.411-7.479C63.438,91.551,65.23,84.312,65.23,74.811 M24.372,12.114v28.498c2.625-4.511,6.452-8.193,11.47-11.042c4.3-2.373,9.554-3.565,15.77-3.565c11.229,0,20.431,4.63,27.597,13.896C86.376,49.16,89.96,61.156,89.96,75.878c0,14.727-3.583,26.721-10.752,35.981  c-3.583,4.516-8.42,7.783-14.516,9.795c-6.094,2.018-12.128,3.031-18.102,3.031c-11.466,0-22.101-2.967-31.894-8.908C4.894,109.848,0,98.445,0,81.58V0.002h12.183c3.345,0,6.211,1.188,8.604,3.561C23.173,5.94,24.372,8.791,24.372,12.114" data-reactid=".0.$logo.0.0"></path>
    <path d="M104.512,0.357h12.903c3.343,0,6.209,1.131,8.603,3.384c2.385,2.26,3.583,5.049,3.583,8.372v110.791h-25.089V0.357z" data-reactid=".0.$logo.0.1"></path>
    <path d="M166.374,65.903h36.559c-0.481-6.409-2.151-11.157-5.017-14.248c-3.11-3.323-7.527-4.988-13.262-4.988c-5.261,0-9.559,1.665-12.903,4.988C168.4,54.985,166.609,59.731,166.374,65.903 M209.384,93.691h17.918c-2.628,9.975-7.647,17.576-15.052,22.797c-7.41,5.465-16.727,8.197-27.956,8.197c-13.618,0-24.254-4.393-31.898-13.184c-7.65-8.545-11.468-20.773-11.468-36.691c0-15.198,3.701-27.076,11.109-35.625c7.644-8.781,18.28-13.181,31.9-13.181c14.336,0,25.446,4.273,33.332,12.824c7.642,8.791,11.469,21.017,11.469,36.692v2.493v1.43c0,1.19-0.126,2.019-0.358,2.493h-62.007c0.235,7.36,2.026,12.821,5.376,16.387c3.104,3.799,7.762,5.699,13.978,5.699c4.062,0,7.527-0.832,10.394-2.492c0.718-0.234,1.373-0.65,1.971-1.254l1.974-1.953c0.233-0.711,1.131-1.66,2.685-2.852C204.304,94.289,206.515,93.691,209.384,93.691" data-reactid=".0.$logo.0.2"></path>
    <path d="M325.008,122.904h-12.547c-3.582,0-6.514-1.127-8.781-3.385c-2.272-2.258-3.403-5.166-3.403-8.727V62.342c0-5.699-1.736-9.852-5.196-12.467c-3.473-2.61-7.351-3.92-11.65-3.92c-4.3,0-8.126,1.31-11.471,3.92c-3.345,2.615-5.015,6.768-5.015,12.467v60.562h-25.089V67.328c0-16.147,4.24-26.951,12.722-32.414c8.481-5.463,17.861-8.429,28.137-8.906c10.511,0,20.188,2.732,29.033,8.191c8.835,5.465,13.262,16.509,13.262,33.129V122.904z" data-reactid=".0.$logo.0.3"></path>
    <path d="M360.345,74.811c0,9.501,1.793,16.74,5.375,21.73c3.585,4.986,8.72,7.479,15.412,7.479  c6.455,0,11.47-2.492,15.055-7.479c3.343-4.99,5.018-12.229,5.018-21.73c0-8.551-1.793-15.32-5.375-20.308  c-3.827-4.746-8.962-7.123-15.412-7.123c-6.215,0-11.112,2.493-14.697,7.483C362.138,59.613,360.345,66.26,360.345,74.811 M401.205,0h12.187c3.341,0,6.21,1.247,8.603,3.739c2.385,2.495,3.583,5.292,3.583,8.372V81.58c0,16.866-4.897,28.268-14.697,34.198c-9.797,5.941-20.427,8.908-31.896,8.908c-6.213,0-12.308-1.014-18.277-3.031c-5.978-2.012-10.755-5.283-14.337-9.795c-6.935-8.781-10.395-20.779-10.395-35.981c0-14.96,3.46-26.951,10.395-35.979c7.167-9.263,16.364-13.894,27.599-13.894c5.971,0,11.228,1.192,15.768,3.565c4.777,2.851,8.603,6.531,11.47,11.042V0z" data-reactid=".0.$logo.0.4"></path>
    <path d="M440.128,0.357h12.902c3.345,0,6.21,1.131,8.604,3.384c2.386,2.26,3.583,5.049,3.583,8.372v110.791h-25.09V0.357z" data-reactid=".0.$logo.0.5"></path>
    <path d="M501.993,65.903h36.557c-0.482-6.409-2.15-11.157-5.018-14.248c-3.109-3.323-7.525-4.988-13.262-4.988c-5.258,0-9.558,1.665-12.902,4.988C504.018,54.985,502.225,59.731,501.993,65.903 M544.999,93.691h17.922c-2.629,9.975-7.65,17.576-15.053,22.797c-7.412,5.465-16.726,8.197-27.958,8.197c-13.617,0-24.252-4.393-31.896-13.184  c-7.649-8.545-11.47-20.773-11.47-36.691c0-15.198,3.702-27.076,11.112-35.625c7.642-8.781,18.276-13.181,31.898-13.181 c14.335,0,25.445,4.273,33.332,12.824c7.643,8.791,11.471,21.017,11.471,36.692v2.493v1.43c0,1.19-0.125,2.019-0.361,2.493h-62.002c0.232,7.36,2.025,12.821,5.375,16.387c3.103,3.799,7.762,5.699,13.977,5.699c4.062,0,7.527-0.832,10.397-2.492c0.715-0.234,1.371-0.65,1.969-1.254l1.974-1.953c0.235-0.711,1.129-1.66,2.684-2.852 C539.921,94.289,542.134,93.691,544.999,93.691" data-reactid=".0.$logo.0.6"></path>
</svg>